# AST/ASF file generated using VICON BodyLanguage
# -----------------------------------------------
:version 1.10
:name VICON
:units
  mass 1.0
  length 0.45
  angle deg
:documentation
   .ast/.asf automatically generated from VICON data using
   VICON BodyBuilder and BodyLanguage model FoxedUp or BRILLIANT.MOD
:root
   order TX TY TZ RX RY RZ
   axis XYZ
   position 0 0 0  
   orientation 0 0 0 
:bonedata
  begin
     id 1 
     name lhipjoint
     direction 0.576517 -0.752066 0.319413 
     length 2.45433 
     axis 0 0 0  XYZ
  end
  begin
     id 2 
     name lfemur
     direction 0.34202 -0.939693 0  
     length 7.54459  
     axis 0 0 20  XYZ
    dof rx ry rz
    limits (-160.0 20.0)
           (-70.0 70.0)
           (-60.0 70.0)
  end
  begin
     id 3 
     name ltibia
     direction 0.34202 -0.939693 0   
     length 7.73986   
     axis 0 0 20   XYZ
    dof rx
    limits (-10.0 170.0)
  end
  begin
     id 4 
     name lfoot
     direction 0.090693 -0.249177 0.964202   
     length 2.28437   
     axis -90 7.62852e-016 20   XYZ
    dof rx rz
    limits (-45.0 90.0)
           (-70.0 20.0)
  end
  begin
     id 5 
     name ltoes
     direction 1.5356e-011 -4.21928e-011 1   
     length 1.14243   
     axis -90 7.62852e-016 20   XYZ
    dof rx
    limits (-90.0 20.0)
  end
  begin
     id 6 
     name rhipjoint
     direction -0.573937 -0.753736 0.320122   
     length 2.44889  
     axis 0 0 0  XYZ 
  end
  begin
     id 7 
     name rfemur
     direction -0.34202 -0.939693 0   
     length 7.50166   
     axis 0 0 -20   XYZ
    dof rx ry rz
    limits (-160.0 20.0)
           (-70.0 70.0)
           (-70.0 60.0)
  end
  begin
     id 8 
     name rtibia
     direction -0.34202 -0.939693 0   
     length 7.54266   
     axis 0 0 -20   XYZ
    dof rx
    limits (-10.0 170.0)
 end
 begin
     id 9 
     name rfoot
     direction -0.114017 -0.31326 0.942798   
     length 2.34212  
     axis -90 -7.62852e-016 -20   XYZ
    dof rx rz
    limits (-45.0 90.0)
           (-20.0 70.0)
  end
  begin
     id 10 
     name rtoes
     direction -1.53557e-011 -4.21867e-011 1   
     length 1.16246   
     axis -90 -7.62852e-016 -20   XYZ
    dof rx
    limits (-90.0 20.0)
  end
  begin
     id 11 
     name lowerback
     direction -0.0228371 0.999155 -0.034167   
     length 2.0537   
     axis 0 0 0   XYZ
    dof rx ry rz
    limits (-20.0 45.0)
           (-30.0 30.0)
           (-30.0 30.0)
  end
  begin
     id 12 
     name upperback
     direction 0.0198981 0.999794 0.00389455   
     length 2.05302   
     axis 0 0 0   XYZ
    dof rx ry rz
    limits (-20.0 45.0)
           (-30.0 30.0)
           (-30.0 30.0)
  end
  begin
     id 13 
     name thorax
     direction 0.0304566 0.99935 0.0192987   
     length 2.05315   
     axis 0 0 0   XYZ
    dof rx ry rz
    limits (-20.0 45.0)
           (-30.0 30.0)
           (-30.0 30.0)
  end
  begin
     id 14 
     name lowerneck
     direction -0.0196762 0.99417 0.106017   
     length 1.82056   
     axis 0 0 0   XYZ
    dof rx ry rz
    limits (-20.0 45.0)
           (-30.0 30.0)
           (-30.0 30.0)
  end
  begin
     id 15 
     name upperneck
     direction 0.00517787 0.9802 -0.197944   
     length 1.83835   
     axis 0 0 0   XYZ
    dof rx ry rz
    limits (-20.0 45.0)
           (-30.0 30.0)
           (-30.0 30.0)
  end
  begin
     id 16
     name head
     direction 0.00211419 0.996945 -0.078081  
     length 1.85629  
     axis 0 0 0   XYZ
    dof rx ry rz
    limits (-20.0 45.0)
           (-30.0 30.0)
           (-30.0 30.0)
  end
  begin
     id 17 
     name lclavicle
     direction 0.930001 0.365811 -0.0357824  
     length 3.81961  
     axis 0 0 0   XYZ
    dof ry rz
    limits (-20.0 10.0)
           (0.0 20.0)
  end
  begin
     id 18 
     name lhumerus
     direction 1 -4.48968e-011 -3.06644e-027   
     length 5.14507   
     axis 180 -30 -90   XYZ
    dof rx ry rz
    limits (-60.0 90.0)
           (-90.0 90.0)
           (-90.0 90.0)
  end
  begin
     id 19
     name lradius
     direction 1 -4.48965e-011 9.06925e-028   
     length 3.50646   
     axis 180 -30 -90   XYZ
    dof rx
    limits (-10.0 170.0)
  end
  begin
     id 20
     name lwrist
     direction 1 -4.48957e-011 1.03922e-027   
     length 1.75323   
     axis -2.56395e-016 90 90   XYZ
    dof ry
    limits (-180.0 0.0)
 end
  begin
     id 21 
     name lhand
     direction 1 -4.48967e-011 2.08017e-027   
     length 0.629969   
     axis -1.32723e-015 90 90   XYZ
    dof rx rz
    limits (-90.0 90.0)
           (-45.0 45.0)
  end
  begin
     id 22 
     name lfingers
     direction 1 -4.49089e-011 4.20095e-027   
     length 0.507897   
     axis -2.6545e-015 90 90   XYZ
    dof rx
    limits (0.0 90.0)
  end
  begin
     id 23
     name lthumb
     direction 0.707107 -6.35001e-011 0.707107   
     length 0.729241   
     axis -90 45 5.05613e-014   XYZ
    dof rx rz
    limits (-45.0 45.0)
           (-45.0 45.0)
  end
  begin
     id 24 
     name rclavicle
     direction -0.881882 0.464123 -0.0829113   
     length 3.47515  
     axis 0 0 0   XYZ 
    dof ry rz
    limits (-10.0 20.0)
           (-20.0 0.0)
  end
  begin
     id 25 
     name rhumerus
     direction -1 -4.48961e-011 -1.55672e-027  
     length 5.232   
     axis 180 30 90   XYZ
    dof rx ry rz
    limits (-90.0 60.0)
           (-90.0 90.0)
           (-90.0 90.0)
  end
  begin
     id 26 
     name rradius
     direction -1 -4.48963e-011 6.18178e-029   
     length 3.65641   
     axis 180 30 90   XYZ
    dof rx
    limits (-10.0 170.0)
  end
  begin
     id 27 
     name rwrist
     direction -1 -4.48982e-011 1.04136e-027   
     length 1.8282   
     axis -2.56395e-016 -90 -90   XYZ
    dof ry
    limits (-180.0 0.0)
  end
  begin
     id 28
     name rhand
     direction -1 -4.48929e-011 2.07378e-027   
     length 0.656807   
     axis -1.32723e-015 -90 -90   XYZ
    dof rx rz
    limits (-90.0 90.0)
           (-45.0 45.0)
  end
  begin
     id 29
     name rfingers
     direction -1 -4.489e-011 4.13816e-027   
     length 0.529535   
     axis -2.6545e-015 -90 -90   XYZ
    dof rx
    limits (0.0 90.0)
  end
  begin
     id 30
     name rthumb
     direction -0.707107 -6.34843e-011 0.707107   
     length 0.760309   
     axis -90 -45 -5.05613e-014   XYZ
    dof rx rz
    limits (-45.0 45.0)
           (-45.0 45.0)
  end
:hierarchy
  begin
    root lhipjoint rhipjoint lowerback
    lhipjoint lfemur
    lfemur ltibia
    ltibia lfoot
    lfoot ltoes
    rhipjoint rfemur
    rfemur rtibia
    rtibia rfoot
    rfoot rtoes
    lowerback upperback
    upperback thorax
    thorax lowerneck lclavicle rclavicle
    lowerneck upperneck
    upperneck head
    lclavicle lhumerus
    lhumerus lradius
    lradius lwrist
    lwrist lhand lthumb
    lhand lfingers
    rclavicle rhumerus
    rhumerus rradius
    rradius rwrist
    rwrist rhand rthumb
    rhand rfingers
  end

#!OML:ASF H:\ManfredETheater\Project 1\Capture day 1\Session 1\subject.ASF
:FULLY-SPECIFIED
:DEGREES
1
root -3.35916 14.9699 42.43 -158.394 -3.45679 173.979
lowerback 14.3992 -4.87382 -5.72153
upperback -2.18335 -7.29084 2.70544
thorax -9.36187 -3.11922 7.73193
lowerneck -17.211 1.62678 0.173894
upperneck 8.13655 2.60459 -3.2778
head 5.28624 1.05914 -0.815713
rclavicle -1.2424e-014 -9.93923e-015
rhumerus -82.4468 5.90145 -82.9375
rradius 86.7083
rwrist -11.8743
rhand -20.42 -8.94808
rfingers 7.12502
rthumb 5.93434 -38.845
lclavicle -1.2424e-014 -9.93923e-015
lhumerus -18.4779 -20.5568 91.1928
lradius 127.329
lwrist 9.47881
lhand -20.6868 -7.6053
lfingers 7.12502
lthumb 5.67674 22.2987
rfemur -72.5518 -9.01043 19.9869
rtibia 67.0728
rfoot -17.8291 -5.15075
rtoes -25.4271
lfemur 8.73781 -8.68798 -24.315
ltibia 26.8752
lfoot 4.58704 -10.8915
ltoes -34.8357
2
root -3.33818 14.9814 42.1056 -157.831 -2.69835 174.033
lowerback 14.587 -4.75184 -5.74919
upperback -2.48603 -7.13634 2.82146
thorax -9.81399 -3.00052 7.89773
lowerneck -17.3579 1.81316 0.218696
upperneck 8.14403 2.86847 -3.43559
head 5.3203 1.17768 -0.846486
rclavicle 7.08667e-014 -2.8625e-014
rhumerus -82.7798 5.95925 -82.652
rradius 86.8312
rwrist -12.3994
rhand -20.4123 -8.97422
rfingers 7.12502
rthumb 5.94174 -38.8709
lclavicle 7.08667e-014 -2.8625e-014
lhumerus -18.7354 -20.798 91.3596
lradius 128.58
lwrist 9.34274
lhand -20.5189 -7.99433
lfingers 7.12502
lthumb 5.83883 21.9052
rfemur -72.1494 -8.16596 19.9029
rtibia 67.7961
rfoot -18.8439 -6.00544
rtoes -23.6763
lfemur 8.36638 -9.22026 -24.6572
ltibia 26.5112
lfoot 11.3891 -8.54597
ltoes -19.8905
3
root -3.31615 15.0085 41.7777 -157.305 -2.14738 174.271
lowerback 14.5458 -4.7004 -5.43704
upperback -2.54284 -7.00259 2.89781
thorax -9.90182 -2.94526 7.78196
lowerneck -17.7055 1.98612 0.327604
upperneck 8.03356 3.08377 -3.4747
head 5.34722 1.28376 -0.853315
rclavicle 1.75924e-014 -3.97569e-015
rhumerus -82.4779 5.75248 -82.4344
rradius 86.6606
rwrist -12.707
rhand -20.3173 -8.90997
rfingers 7.12502
rthumb 6.03348 -38.8041
lclavicle 1.75924e-014 -3.97569e-015
lhumerus -18.7272 -21.2582 91.3052
lradius 129.461
lwrist 8.99257
lhand -20.6563 -7.29889
lfingers 7.12502
lthumb 5.70621 22.6043
rfemur -71.8154 -7.42039 20.1236
rtibia 68.2641
rfoot -19.3903 -7.7728
rtoes -26.6501
lfemur 7.30394 -9.76079 -24.6457
ltibia 27.4281
lfoot 15.3895 -8.23729
ltoes -18.6231
4
root -3.29558 15.0183 41.4577 -156.807 -1.56658 174.456
lowerback 14.6162 -4.52628 -5.14358
upperback -2.50857 -6.72057 2.88243
thorax -9.98446 -2.82311 7.55263
lowerneck -18.5651 2.05593 0.542615
upperneck 8.13552 3.14183 -3.47864
head 5.52063 1.31136 -0.876394
rclavicle -6.26172e-015 -6.55989e-015
rhumerus -81.7735 5.06156 -82.1196
rradius 86.3152
rwrist -12.8548
rhand -20.275 -9.08526
rfingers 7.12502
rthumb 6.07436 -38.9782
lclavicle -6.26172e-015 -6.55989e-015
lhumerus -18.7175 -22.0954 91.3572
lradius 129.982
lwrist 8.71758
lhand -20.7937 -7.19814
lfingers 7.12502
lthumb 5.57355 22.7086
rfemur -71.5552 -6.69872 20.2677
rtibia 68.7941
rfoot -19.8651 -8.89929
rtoes -29.4239
lfemur 6.1218 -10.0972 -24.6598
ltibia 28.7048
lfoot 19.7716 -8.24271
ltoes -17.4362
5
root -3.27317 15.043 41.1404 -156.71 -1.10761 174.522
lowerback 15.0421 -4.40169 -5.05005
upperback -2.38969 -6.55329 2.92199
thorax -10.1301 -2.74087 7.55255
lowerneck -18.525 2.09931 0.380365
upperneck 7.47639 3.22316 -3.39059
head 5.30249 1.36997 -0.816652
rclavicle -6.19214e-014 3.27995e-014
rhumerus -80.4035 4.39249 -81.7982
rradius 85.6001
rwrist -12.2087
rhand -20.7096 -9.61202
rfingers 7.12502
rthumb 5.65471 -39.5166
lclavicle -6.19214e-014 3.27995e-014
lhumerus -19.4569 -22.4224 92.1242
lradius 129.216
lwrist 8.39936
lhand -20.8113 -7.29028
lfingers 7.12502
lthumb 5.5565 22.6169
rfemur -70.6021 -6.18177 20.2059
rtibia 69.3381
rfoot -20.4892 -8.87122
rtoes -25.5006
lfemur 4.93667 -9.59235 -24.615
ltibia 30.7992
lfoot 24.0979 -8.64938
ltoes -13.1794
6
root -3.25059 15.0602 40.8226 -156.471 -0.623425 174.664
lowerback 15.3339 -4.26107 -4.84757
upperback -2.31433 -6.33944 2.93892
thorax -10.2674 -2.64353 7.4426
lowerneck -18.7682 2.15294 0.379592
upperneck 7.10818 3.29765 -3.3714
head 5.22507 1.41736 -0.802229
rclavicle -2.43511e-014 7.55382e-015
rhumerus -79.3733 3.72705 -81.5634
rradius 85.1044
rwrist -11.958
rhand -21.0686 -9.9346
rfingers 7.12502
rthumb 5.30815 -39.8481
lclavicle -2.43511e-014 7.55382e-015
lhumerus -19.9675 -22.876 92.6674
lradius 128.938
lwrist 8.05563
lhand -20.7921 -7.28161
lfingers 7.12502
lthumb 5.57512 22.6251
rfemur -69.8152 -5.55681 20.2249
rtibia 69.8037
rfoot -21.1842 -9.56533
rtoes -25.1575
lfemur 3.32881 -9.32503 -24.5279
ltibia 33.5009
lfoot 27.3851 -8.34729
ltoes -7.88293
7
root -3.22685 15.0784 40.5062 -156.315 -0.209007 174.845
lowerback 15.6776 -4.11708 -4.58549
upperback -2.18881 -6.11199 2.9506
thorax -10.3858 -2.54676 7.29009
lowerneck -18.9535 2.17771 0.357438
upperneck 6.65849 3.33811 -3.33808
head 5.11138 1.45197 -0.78412
rclavicle -1.36167e-013 3.18055e-015
rhumerus -78.1112 2.94543 -81.396
rradius 84.5241
rwrist -11.6054
rhand -21.614 -10.3306
rfingers 7.12502
rthumb 4.78148 -40.2567
lclavicle -1.36167e-013 3.18055e-015
lhumerus -20.6378 -23.2475 93.3675
lradius 128.271
lwrist 7.71193
lhand -20.7585 -7.34852
lfingers 7.12502
lthumb 5.60752 22.5573
rfemur -68.8716 -4.96249 20.282
rtibia 70.2042
rfoot -21.9637 -10.2102
rtoes -24.873
lfemur 1.51828 -8.81088 -24.3206
ltibia 36.767
lfoot 29.5813 -8.23569
ltoes -3.05126
8
root -3.20169 15.0974 40.1911 -156.23 0.129643 175.084
lowerback 16.0791 -3.96903 -4.25959
upperback -2.0386 -5.86764 2.97553
thorax -10.5151 -2.44644 7.11451
lowerneck -19.0663 2.17568 0.308692
upperneck 6.15663 3.35047 -3.30352
head 4.96898 1.47504 -0.765064
rclavicle 4.85035e-014 8.74653e-015
rhumerus -76.666 2.09163 -81.3095
rradius 83.8876
rwrist -11.2216
rhand -22.347 -10.7372
rfingers 7.12502
rthumb 4.07372 -40.678
lclavicle 4.85035e-014 8.74653e-015
lhumerus -21.4973 -23.478 94.2382
lradius 127.215
lwrist 7.3955
lhand -20.741 -7.51495
lfingers 7.12502
lthumb 5.62445 22.3904
rfemur -67.7543 -4.39007 20.4052
rtibia 70.4861
rfoot -22.8186 -10.8093
rtoes -24.5955
lfemur -0.358658 -8.08313 -23.9789
ltibia 40.2741
lfoot 30.764 -8.15028
ltoes 1.73309
9
root -3.17473 15.1186 39.8762 -156.202 0.372714 175.403
lowerback 16.4862 -3.82765 -3.84705
upperback -1.85277 -5.6135 3.02103
thorax -10.6121 -2.35034 6.90533
lowerneck -19.1102 2.15267 0.246892
upperneck 5.60769 3.3398 -3.27232
head 4.80073 1.48896 -0.748124
rclavicle 2.68359e-014 1.11319e-014
rhumerus -75.0244 1.19649 -81.3337
rradius 83.2081
rwrist -10.8747
rhand -23.2518 -11.1008
rfingers 7.12502
rthumb 3.19989 -41.0566
lclavicle 2.68359e-014 1.11319e-014
lhumerus -22.4929 -23.5258 95.2135
lradius 125.77
lwrist 7.13821
lhand -20.8144 -7.71936
lfingers 7.12502
lthumb 5.55351 22.1879
rfemur -66.4697 -3.8424 20.6318
rtibia 70.6477
rfoot -23.7491 -11.4396
rtoes -24.4774
lfemur -2.42187 -7.19779 -23.4782
ltibia 44.2193
lfoot 30.7747 -8.14094
ltoes 6.01225
10
root -3.14599 15.1421 39.5609 -156.215 0.51093 175.811
lowerback 16.8832 -3.69241 -3.33746
upperback -1.64111 -5.34563 3.09533
thorax -10.6784 -2.25663 6.66389
lowerneck -19.1213 2.11011 0.184653
upperneck 5.06044 3.30658 -3.2548
head 4.62823 1.49197 -0.737905
rclavicle -4.27387e-014 -1.59028e-015
rhumerus -73.1982 0.288818 -81.4769
rradius 82.5063
rwrist -10.6268
rhand -24.2854 -11.3929
rfingers 7.12502
rthumb 2.20171 -41.3613
lclavicle -4.27387e-014 -1.59028e-015
lhumerus -23.5879 -23.3693 96.2424
lradius 123.936
lwrist 6.97087
lhand -21.0091 -7.95756
lfingers 7.12502
lthumb 5.36556 21.9545
rfemur -65.0352 -3.32309 20.9876
rtibia 70.671
rfoot -24.7235 -12.1425
rtoes -24.7375
lfemur -4.68064 -6.20369 -22.8089
ltibia 48.5312
lfoot 29.6499 -8.27582
ltoes 9.21932
11
root -3.1155 15.168 39.2448 -156.254 0.544894 176.305
lowerback 17.2534 -3.56849 -2.75079
upperback -1.41809 -5.07372 3.20951
thorax -10.7157 -2.16781 6.41547
lowerneck -19.0821 2.05491 0.110779
upperneck 4.52989 3.26103 -3.24992
head 4.45361 1.48827 -0.731325
rclavicle 4.35338e-014 -6.36111e-015
rhumerus -71.205 -0.568208 -81.7372
rradius 81.7983
rwrist -10.5065
rhand -25.3781 -11.5693
rfingers 7.12502
rthumb 1.14638 -41.546
lclavicle 4.35338e-014 -6.36111e-015
lhumerus -24.7478 -22.9877 97.272
lradius 121.717
lwrist 6.93876
lhand -21.3742 -8.20787
lfingers 7.12502
lthumb 5.01303 21.7128
rfemur -63.452 -2.84416 21.4778
rtibia 70.4813
rfoot -25.6703 -12.8844
rtoes -25.2565
lfemur -7.10103 -5.15612 -21.9834
ltibia 53.0382
lfoot 27.6121 -8.59967
ltoes 11.0334
12
root -3.08352 15.196 38.9278 -156.311 0.475029 176.861
lowerback 17.5902 -3.4551 -2.09944
upperback -1.19128 -4.80004 3.35747
thorax -10.7276 -2.08374 6.16114
lowerneck -19.026 1.98799 0.0326255
upperneck 4.05356 3.20258 -3.26032
head 4.29392 1.47614 -0.729877
rclavicle -6.55989e-015 2.3059e-014
rhumerus -69.0562 -1.34631 -82.1086
rradius 81.1081
rwrist -10.4876
rhand -26.4325 -11.6042
rfingers 7.12502
rthumb 0.128024 -41.5839
lclavicle -6.55989e-015 2.3059e-014
lhumerus -25.9236 -22.414 98.2405
lradius 119.134
lwrist 7.12722
lhand -21.8853 -8.44746
lfingers 7.12502
lthumb 4.51957 21.4843
rfemur -61.7526 -2.42591 22.0904
rtibia 70.1391
rfoot -26.5833 -13.6784
rtoes -25.9153
lfemur -9.74009 -4.10202 -21.0305
ltibia 57.7927
lfoot 24.8165 -9.08211
ltoes 11.0447
